<svg xmlns="http://www.w3.org/2000/svg" viewBox="0 0 64 64">
  <defs>
    <linearGradient id="bugslayersGradient" x1="0%" y1="0%" x2="100%" y2="100%">
      <stop offset="0%" stop-color="#ffb59a" />
      <stop offset="100%" stop-color="#2962ff" />
    </linearGradient>
  </defs>
  <rect width="64" height="64" rx="18" fill="#0b1326" />
  <path
    d="M18 19c0-3.314 2.686-6 6-6h8c8.837 0 16 7.163 16 16v11c0 6.075-4.925 11-11 11H24c-3.314 0-6-2.686-6-6V19Z"
    fill="url(#bugslayersGradient)"
  />
  <path
    d="M24 26h14c4.418 0 8 3.582 8 8v1c0 6.627-5.373 12-12 12h-4c-3.314 0-6-2.686-6-6V26Z"
    fill="#0b1326"
    opacity="0.84"
  />
  <circle cx="39" cy="25" r="3" fill="#dae2fd" />
</svg>
